<svg xmlns="http://www.w3.org/2000/svg" viewBox="0 0 24 24" fill="currentColor">
  <path d="M11.6 8.2 L5.6 8.2 Q3.2 8.2 3.2 10.6 L3.2 19 Q3.2 21.4 5.6 21.4 L14.4 21.4 Q16.8 21.4 16.8 19 L16.8 12.9" fill="none" stroke="currentColor" stroke-width="1.15" stroke-linecap="round" stroke-linejoin="round"/>
  <g transform="translate(5.80 17.7) scale(0.0090 -0.0090)"><path d="M18 0 202 700H432L616 0H480L442 154H192L154 0ZM223 276H411L326 617H308Z"/></g>
  <g transform="translate(11.45 17.7) scale(0.0090 -0.0090)"><path d="M66 0V700H198V0Z"/></g>
  <path d="M16.10,5.20 Q16.64,8.06,19.50,8.60 Q16.64,9.14,16.10,12.00 Q15.56,9.14,12.70,8.60 Q15.56,8.06,16.10,5.20 Z"/>
  <path d="M19.40,1.80 Q19.70,3.40,21.30,3.70 Q19.70,4.00,19.40,5.60 Q19.10,4.00,17.50,3.70 Q19.10,3.40,19.40,1.80 Z"/>
  <path d="M13.40,3.15 Q13.57,4.03,14.45,4.20 Q13.57,4.37,13.40,5.25 Q13.23,4.37,12.35,4.20 Q13.23,4.03,13.40,3.15 Z"/>
</svg>
